<mxfile host="app.diagrams.net" modified="2023-07-16T08:31:35.889Z" agent="Mozilla/5.0 (Macintosh; Intel Mac OS X 10_15_7) AppleWebKit/537.36 (KHTML, like Gecko) Chrome/114.0.0.0 Safari/537.36" version="21.4.0" etag="6j2dS2CxKJnDCUlbU30v" type="github">
  <diagram name="第 1 页" id="EEyN7_L1d9EwEOdHLBwh">
    <mxGraphModel>
      <root>
        <mxCell id="0" />
        <mxCell id="1" parent="0" />
      </root>
    </mxGraphModel>
  </diagram>
</mxfile>
